<svg xmlns="http://www.w3.org/2000/svg" viewBox="0 0 256 153.6" role="img" aria-label="Tailwind CSS logo">
  <path fill="#38BDF8" d="M128 0c-34.133 0-55.467 17.067-64 51.2 12.8-17.067 27.733-23.467 44.8-19.2 9.733 2.133 16.533 9.6 24 17.6 12.8 13.867 27.733 29.867 60.8 29.867 34.133 0 55.467-17.067 64-51.2-12.8 17.067-27.733 23.467-44.8 19.2-9.6-2.133-16.533-9.6-24-17.6C176 15.867 161.067 0 128 0zM64 76.8c-34.133 0-55.467 17.067-64 51.2 12.8-17.067 27.733-23.467 44.8-19.2 9.6 2.133 16.533 9.6 24 17.6 12.8 13.867 27.733 29.867 60.8 29.867 34.133 0 55.467-17.067 64-51.2-12.8 17.067-27.733 23.467-44.8 19.2-9.6-2.133-16.533-9.6-24-17.6C112 92.8 97.067 76.8 64 76.8z"></path>
</svg>
